<svg xmlns="http://www.w3.org/2000/svg" xmlns:xlink="http://www.w3.org/1999/xlink" width="500" zoomAndPan="magnify" viewBox="0 0 375 374.999991" height="500" preserveAspectRatio="xMidYMid meet" version="1.0"><defs><g/><clipPath id="703a1ed87c"><path d="M 54.027344 65 L 336 65 L 336 328 L 54.027344 328 Z M 54.027344 65 " clip-rule="nonzero"/></clipPath><clipPath id="760fbdba3a"><path d="M 250 74 L 345 74 L 345 157 L 250 157 Z M 250 74 " clip-rule="nonzero"/></clipPath><clipPath id="40f30246a5"><path d="M 260.132812 58.710938 L 350.265625 91.765625 L 325.214844 160.066406 L 235.085938 127.015625 Z M 260.132812 58.710938 " clip-rule="nonzero"/></clipPath><clipPath id="db2f20dec0"><path d="M 260.132812 58.710938 L 350.265625 91.765625 L 325.214844 160.066406 L 235.085938 127.015625 Z M 260.132812 58.710938 " clip-rule="nonzero"/></clipPath></defs><g clip-path="url(#703a1ed87c)"><path fill="#8cae19" d="M 332.351562 229.0625 L 326.980469 245.980469 C 312.746094 279.246094 288.75 302.828125 254.992188 316.734375 C 221.042969 330.578125 184.90625 330.832031 146.582031 317.503906 C 110.421875 303.042969 84.296875 279.804688 68.203125 247.792969 C 63.066406 237.457031 59.382812 226.65625 57.152344 215.390625 L 55.027344 198.324219 C 54.378906 186.78125 55.4375 175.144531 58.203125 163.425781 C 67.789062 127.71875 88.332031 101.019531 119.832031 83.324219 C 151.332031 65.632812 186.605469 60.980469 225.65625 69.371094 C 264.269531 79.574219 293.613281 99.699219 313.683594 129.738281 C 333.753906 159.777344 339.980469 192.886719 332.351562 229.0625 " fill-opacity="1" fill-rule="nonzero"/></g><g clip-path="url(#760fbdba3a)"><g clip-path="url(#40f30246a5)"><g clip-path="url(#db2f20dec0)"><path fill="#54473f" d="M 250.195312 131.136719 C 251.847656 131.390625 255.152344 131.867188 258.453125 132.492188 C 261.753906 133.121094 265.046875 133.898438 268.335938 134.832031 C 271.625 135.761719 274.914062 136.839844 277.347656 137.75 C 279.78125 138.660156 281.378906 139.296875 282.921875 139.945312 C 284.460938 140.59375 285.945312 141.25 287.371094 141.910156 C 288.800781 142.574219 290.171875 143.242188 291.839844 144.078125 C 293.507812 144.910156 295.5 145.941406 297.542969 147.035156 C 299.582031 148.128906 301.675781 149.289062 303.816406 150.519531 C 305.953125 151.753906 308.136719 153.058594 309.839844 154.035156 C 311.542969 155.015625 312.332031 155.390625 313.066406 155.699219 C 313.796875 156.003906 314.554688 156.257812 315.679688 156.425781 C 316.804688 156.589844 319.332031 155.972656 321.28125 152.320312 C 323.230469 148.667969 324.558594 144.839844 326.601562 140.378906 C 328.648438 135.914062 331.320312 130.796875 334.667969 125.058594 C 338.015625 119.320312 342.0625 112.988281 344.179688 106.753906 C 346.300781 100.515625 343.207031 98.992188 341.992188 99.207031 C 340.777344 99.417969 340.160156 99.710938 339.601562 100.039062 C 339.039062 100.367188 338.449219 100.761719 337.535156 101.398438 C 336.617188 102.035156 334.980469 103.199219 332.757812 104.785156 C 330.539062 106.375 327.726562 108.390625 324.328125 110.851562 C 320.929688 113.3125 316.921875 116.179688 314.582031 117.867188 C 312.246094 119.554688 312.03125 119.691406 311.964844 119.734375 C 311.898438 119.777344 312.03125 119.753906 312.421875 119.777344 C 312.816406 119.796875 313.488281 119.828125 313.679688 119.9375 C 313.871094 120.046875 313.828125 119.964844 313.609375 119.527344 C 313.390625 119.09375 313.097656 118.34375 312.777344 117.308594 C 312.457031 116.273438 312.125 114.972656 311.863281 113.757812 C 311.597656 112.542969 311.339844 110.933594 310.96875 108.308594 C 310.597656 105.683594 310.160156 102.070312 309.640625 97.492188 C 309.121094 92.910156 308.515625 87.363281 308.136719 83.902344 C 307.757812 80.441406 307.628906 79.800781 307.4375 79.140625 C 307.242188 78.480469 306.9375 77.769531 306.398438 76.980469 C 305.859375 76.1875 304.929688 75.371094 304.007812 74.914062 C 303.085938 74.457031 300.980469 74.273438 299.640625 74.746094 C 298.300781 75.21875 297.515625 75.785156 296.925781 76.34375 C 296.335938 76.902344 295.824219 77.488281 290.878906 84.171875 C 285.9375 90.859375 276.976562 103.71875 276.664062 104.140625 C 276.351562 104.558594 276.074219 104.910156 275.890625 105.128906 C 275.707031 105.347656 275.644531 105.414062 275.824219 105.292969 C 276.003906 105.167969 280.875 104.921875 280.800781 104.742188 C 280.730469 104.566406 279.367188 102.945312 277.328125 100.183594 C 275.292969 97.421875 272.648438 93.605469 269.421875 88.765625 C 266.191406 83.929688 262.355469 78.0625 261.878906 77.464844 C 261.402344 76.867188 260.828125 76.34375 259.945312 75.863281 C 259.058594 75.378906 257.785156 75.144531 256.480469 75.4375 C 255.175781 75.726562 252.851562 78.5625 252.410156 81.625 C 251.96875 84.691406 251.804688 88.453125 251.867188 92.976562 C 251.929688 97.5 252.230469 102.808594 252.773438 107.15625 C 253.316406 111.503906 258.539062 111.335938 258.445312 108.4375 C 258.445312 108.4375 259.0625 102.652344 259.277344 97.789062 C 259.496094 92.925781 259.832031 88.957031 260.296875 85.929688 C 260.765625 82.902344 261.316406 80.859375 259.835938 82.351562 C 258.351562 83.84375 257.277344 83.941406 256.457031 83.703125 C 255.632812 83.46875 255.207031 83.183594 255.042969 83.03125 C 254.875 82.878906 254.734375 82.6875 257.988281 88.496094 C 261.242188 94.304688 264.058594 99.097656 266.429688 102.878906 C 268.804688 106.664062 270.761719 109.476562 272.480469 111.484375 C 274.203125 113.496094 276.480469 114.984375 279.492188 114.496094 C 282.503906 114.011719 283.097656 113.511719 283.589844 113.015625 C 284.085938 112.515625 284.554688 111.984375 285.023438 111.398438 C 285.496094 110.8125 286.046875 110.082031 294.890625 97.128906 C 303.734375 84.179688 303.882812 83.957031 304.007812 83.789062 C 304.128906 83.621094 304.078125 83.648438 303.644531 83.886719 C 303.207031 84.128906 302.039062 84.40625 300.753906 84.167969 C 299.46875 83.925781 299.097656 83.679688 298.605469 83.171875 C 298.113281 82.664062 297.933594 82.34375 297.902344 82.238281 C 297.867188 82.132812 297.902344 82.203125 297.953125 82.382812 C 298.007812 82.5625 299.089844 88.699219 300.015625 93.898438 C 300.945312 99.101562 301.726562 103.355469 302.351562 106.667969 C 302.972656 109.984375 303.449219 112.371094 303.808594 113.867188 C 304.164062 115.363281 304.617188 116.976562 305.085938 118.421875 C 305.554688 119.863281 306.042969 121.125 306.589844 122.230469 C 307.132812 123.335938 307.78125 124.320312 308.574219 125.117188 C 309.367188 125.910156 310.199219 126.4375 311.265625 126.589844 C 312.328125 126.738281 313.214844 126.667969 313.953125 126.453125 C 314.6875 126.238281 315.332031 125.941406 315.945312 125.585938 C 316.554688 125.226562 321.097656 122.261719 325.015625 119.710938 C 328.933594 117.164062 332.25 115.039062 334.941406 113.320312 C 337.632812 111.597656 339.710938 110.304688 341.167969 109.421875 C 342.625 108.535156 343.191406 108.195312 343.570312 107.984375 C 343.949219 107.777344 344.136719 107.691406 343.949219 107.761719 C 343.757812 107.832031 342.503906 107.933594 340.910156 104.46875 C 339.320312 101.003906 334.28125 107.488281 329.90625 113.589844 C 325.53125 119.691406 321.910156 125.371094 319.078125 130.65625 C 316.246094 135.941406 314.175781 140.832031 312.886719 145.183594 C 311.597656 149.53125 314.363281 146.121094 315.882812 145.875 C 317.398438 145.632812 317.625 145.6875 317.429688 145.621094 C 317.234375 145.554688 316.785156 145.371094 316.273438 145.148438 C 315.757812 144.921875 313.496094 143.683594 311.167969 142.457031 C 308.839844 141.230469 306.558594 140.070312 304.316406 138.988281 C 302.078125 137.902344 299.878906 136.894531 297.730469 135.972656 C 295.585938 135.046875 294.101562 134.433594 292.554688 133.835938 C 291.007812 133.234375 289.410156 132.648438 287.765625 132.078125 C 286.121094 131.503906 284.433594 130.941406 282.664062 130.378906 C 280.894531 129.820312 277.304688 128.851562 273.71875 128.039062 C 270.128906 127.222656 266.550781 126.585938 262.988281 126.117188 C 259.425781 125.648438 255.878906 125.359375 254.082031 125.339844 C 250.574219 125.214844 251.90625 131.246094 250.195312 131.136719 Z M 250.195312 131.136719 " fill-opacity="1" fill-rule="nonzero"/></g></g></g><g fill="#1e1e1e" fill-opacity="1"><g transform="translate(61.860351, 183.293138)"><g><path d="M 73.828125 -67.578125 L 62.90625 -60.703125 L 76.6875 -12.609375 L 74.734375 -6.234375 L 52.375 0.265625 L 40.421875 -46.53125 L 31.0625 -40.546875 L 29.765625 -3.125 L 2.59375 -0.515625 L 3.375 -104.234375 L 33.265625 -104.234375 L 32.234375 -72.265625 L 49 -82.921875 L 50.5625 -104.359375 L 77.84375 -103.453125 Z M 73.828125 -67.578125 "/></g></g></g><g fill="#1e1e1e" fill-opacity="1"><g transform="translate(63.676224, 309.886881)"><g><path d="M 72.4375 -27.109375 L 75.75 0.140625 L 2.875 0.140625 L 3.875 -115.046875 L 34.578125 -113.1875 L 33 -27.546875 Z M 72.4375 -27.109375 "/></g></g></g><g fill="#1e1e1e" fill-opacity="1"><g transform="translate(120.243827, 180.508772)"><g><path d="M 58.640625 -54.53125 L 59.34375 0 L 45.609375 0.09375 L 43.515625 -3.40625 L 41.203125 0 L 9.53125 -0.296875 L 2 -5.8125 L 3.8125 -31.875 L 9.625 -35.890625 L 37.6875 -36.390625 L 38 -43.203125 L 23.765625 -44.203125 L 22.0625 -40.5 L 3.703125 -41.703125 L 2.703125 -48.921875 L 7.921875 -57.75 L 52.03125 -58.34375 Z M 38.390625 -15.640625 L 38.296875 -24.859375 L 23.359375 -24.65625 L 23.953125 -16.234375 Z M 38.390625 -15.640625 "/></g></g></g><g fill="#e9eed9" fill-opacity="1"><g transform="translate(127.013756, 288.604449)"><g><path d="M 2.390625 -0.234375 L 2.984375 -69.984375 L 28.953125 -69.984375 L 25.71875 -1.4375 Z M 22.5 -72.375 L 9.453125 -72.140625 L 3.46875 -76.21875 L 4.0625 -95.59375 L 26.6875 -95.59375 L 29.671875 -92.359375 L 27.03125 -76.09375 Z M 22.5 -72.375 "/></g></g></g><g fill="#1e1e1e" fill-opacity="1"><g transform="translate(162.990565, 180.194589)"><g><path d="M 64.609375 -70.109375 L 69.390625 -65.4375 L 69.15625 -3.34375 L 63.171875 -0.125 L 44.390625 -0.484375 L 44.390625 -48.578125 L 27.640625 -48.09375 L 28 -1.921875 L 2.75 -0.234375 L 2.390625 -68.671875 L 17.703125 -69.03125 L 19.859375 -65.4375 L 22.84375 -68.3125 Z M 64.609375 -70.109375 "/></g></g></g><g fill="#1e1e1e" fill-opacity="1"><g transform="translate(234.784326, 197.833023)"><g><path d="M 8.015625 -51.328125 L 56.46875 -50.375 L 56.46875 -32.1875 L 7.171875 -32.65625 Z M 8.015625 -51.328125 "/></g></g></g><g fill="#1e1e1e" fill-opacity="1"><g transform="translate(255.784325, 313.654505)"><g><path d="M 85.015625 -34.78125 L 76.90625 -33.859375 L 87.828125 -11.546875 L 85.171875 -6.234375 L 61.15625 0 L 43.84375 -31.671875 L 36.1875 -31.359375 L 34.78125 -3.125 L 3.125 -0.46875 L 3.125 -125.109375 L 84.859375 -120.125 L 90.953125 -114.03125 L 91.109375 -45.234375 Z M 58.1875 -61 L 58.34375 -95.9375 L 37.75 -97.96875 L 36.96875 -59.4375 Z M 58.1875 -61 "/></g></g></g><g fill="#1e1e1e" fill-opacity="1"><g transform="translate(126.263756, 316.877998)"><g><path d="M 63.890625 -69.984375 L 71.3125 -60.65625 L 69.875 -9.328125 L 61.25 0 L 23.203125 -0.484375 L 20.21875 -3.828125 L 17.59375 0 L 2.390625 -0.125 L 3.109375 -95.71875 L 27.390625 -94.390625 L 28.109375 -67.234375 Z M 45.828125 -20.9375 L 44.390625 -47.375 L 28.46875 -46.78125 L 28.234375 -20.453125 Z M 45.828125 -20.9375 "/></g></g></g><g fill="#1e1e1e" fill-opacity="1"><g transform="translate(184.405627, 312.053229)"><g><path d="M 57.015625 -78.65625 L 79.46875 -79.734375 L 79.0625 -0.265625 L 60.96875 -0.265625 L 58.109375 -4.21875 L 55.515625 -0.265625 L 12.390625 0 L 3.40625 -5.3125 L 2.71875 -79.734375 L 24.359375 -78.921875 L 30.078125 -71.84375 L 33.75 -23.40625 L 49.796875 -21.359375 L 51.84375 -71.984375 Z M 57.015625 -78.65625 "/></g></g></g></svg>